<svg viewBox="0 0 300 300" xmlns="http://www.w3.org/2000/svg"><path d="M116.122 6.52c-5.308 0-9.617 4.31-9.617 9.618 0 3.091 1.508 5.794 3.776 7.552v199.3H10.927s55.554 69.116 97.883 71.213c84.974 4.21 182.487-71.213 182.487-71.213H122.203V23.507c2.136-1.763 3.54-4.39 3.54-7.375 0-5.307-4.31-9.617-9.617-9.617zm13.452 14.692c14.294 73.246 24.661 143.353 0 185.437l140.951.177C244.123 144.958 203.276 83.08 129.574 21.215zM103.2 83.399c-13.314 67.066-60.33 89.85-95.169 123.546l95.169-.118V83.402z" fill="#f07f7f"/></svg>