<?xml version="1.0" encoding="UTF-8"?>
<svg viewBox="0 0 300 300" xmlns="http://www.w3.org/2000/svg">
 <g transform="matrix(.87023 0 0 .87023 53.098 -678.62)" fill="#d5d5d5">
  <path d="m72.422 787.31c-6.0988 0-11.051 4.9523-11.051 11.051 0 3.5525 1.7331 6.6582 4.3391 8.6782v229.02h-114.17s63.839 79.423 112.48 81.833c97.645 4.8385 209.7-81.833 209.7-81.833h-194.31v-229.23c2.4543-2.0255 4.0679-5.0442 4.0679-8.4748 0-6.0989-4.9523-11.051-11.051-11.051zm15.458 16.882c16.426 84.169 28.339 164.73 0 213.09l161.97 0.2032c-30.339-71.094-77.277-142.2-161.97-213.29zm-30.306 71.46c-15.299 77.067-69.326 103.25-109.36 141.97l109.36-0.1356v-141.83z" fill="#f07f7f"/>
 </g>
</svg>